<svg xmlns="http://www.w3.org/2000/svg" viewBox="0 0 252 385.21"><defs><style>.cls-1{fill:#00b1ff;}.cls-2,.cls-6{fill:#fff;}.cls-2,.cls-3,.cls-4,.cls-7{stroke:#a7a7a7;stroke-miterlimit:10;}.cls-3,.cls-4,.cls-7{fill:none;}.cls-3,.cls-7{stroke-linecap:round;}.cls-5{fill:#a7a7a7;}.cls-7{stroke-width:2px;}</style></defs><title>goFuckit</title><g id="图层_2" data-name="图层 2"><g id="图层_1-2" data-name="图层 1"><g id="图层_1-2-2" data-name="图层 1-2"><path class="cls-1" d="M221.34,243.49,209.19,257s-14.74,33.56-51.51,46.45l3.62,16.69S217.58,308.53,221.34,243.49Z"/><path class="cls-1" d="M31.76,243.49,43.91,257s14.74,33.56,51.51,46.45L91.8,320.11S35.52,308.53,31.76,243.49Z"/><path class="cls-2" d="M126,291.72c-35.08,0-63.51,41.41-63.51,92.49h127C189.51,333.13,161.08,291.72,126,291.72Z"/><path class="cls-2" d="M193.54,153.33A24.66,24.66,0,1,0,152,127.72a93,93,0,0,0-51-.29,24.65,24.65,0,1,0-41.94,25.22,92.5,92.5,0,1,0,134.45.68Z"/><path class="cls-3" d="M108,125.77s3.15,115.17-29.74,170"/><path class="cls-3" d="M141.68,125.77s-11.34,125.48,23.46,174.55"/><path class="cls-1" d="M94,133.21a16.37,16.37,0,0,0-29.66,13.87A16.66,16.66,0,0,0,66.1,150,61.34,61.34,0,0,1,94,133.21Z"/><path class="cls-1" d="M186.76,148.29a16.38,16.38,0,1,0-25.07-21.08,16.05,16.05,0,0,0-2.52,4.08A61.53,61.53,0,0,1,186.76,148.29Z"/><ellipse class="cls-2" cx="209.18" cy="243.49" rx="12.04" ry="18.93" transform="translate(-40.27 41.46) rotate(-10.33)"/><ellipse class="cls-2" cx="42.5" cy="241.87" rx="18.93" ry="12.04" transform="translate(-203.07 240.31) rotate(-79.67)"/><path class="cls-4" d="M234.51.5h-202a6.68,6.68,0,0,0-6.69,6.67V69.32A6.68,6.68,0,0,0,32.48,76H135.54a23.8,23.8,0,0,1,0,22.25S153.69,97.09,160.13,76h74.38a6.68,6.68,0,0,0,6.69-6.67V7.19A6.68,6.68,0,0,0,234.53.5Z"/><path class="cls-5" d="M39,185s109.11,16.12,172.32-4.12c0,0,7.52,13.22,7.12,36.73,0,0-37.92,16.64-92.47,16.64s-92.49-16.64-92.49-16.64S33,203.18,39,185Z"/><ellipse class="cls-6" cx="98.25" cy="212.31" rx="6.31" ry="11.03"/><ellipse class="cls-6" cx="141.68" cy="212.31" rx="6.31" ry="11.03"/><line class="cls-7" x1="1" y1="384.21" x2="251" y2="384.21"/></g><path class="cls-5" d="M67.94,37.09c-1.91.18-3.87.4-5.87.58V40.6H57.79V38l-8.49.54-.58-4c3.2-.13,6.23-.27,9.07-.44v-2.5h-7.6l-1-3.73a26.17,26.17,0,0,0,2.76-4H48.05v-4.1h5.83c.36-.84.67-1.69,1-2.58l4.63.76c-.27.62-.49,1.25-.72,1.82H68.83v4.1H56.91a38.07,38.07,0,0,1-2.32,3.91h3.2V25.3h4.28v2.53h6.31v3.78H62.07v2.23c2-.18,4-.31,5.87-.49Zm15.53,21.8H78.75V57.33H57.57v1.56H52.86V41.49H83.47ZM78.75,47.5V45.32H57.57V47.5Zm0,5.92V51.15H57.57v2.27ZM71.19,41.09,68,37.75a17.59,17.59,0,0,0,2.9-9.65V20.62c5.87-.57,10.23-1.55,13.17-2.89l3,3.43a41.42,41.42,0,0,1-11.92,2.93v3.52H87.83v4.05H83.74v9h-4.5v-9h-4.4A22.31,22.31,0,0,1,71.19,41.09Z"/><path class="cls-5" d="M128.32,19.51v4.54H112.75v2.58c-.09,2.4-.22,4.63-.49,6.72h19.58v4.49h-13.3v13.8c0,1.42.66,2.18,2,2.18h4.76a2.07,2.07,0,0,0,1.82-1c.49-.62.8-2.63,1-6l4.36,1.47c-.4,4.81-1.11,7.65-2.09,8.54a5.92,5.92,0,0,1-4.18,1.29h-7.08c-3.47,0-5.2-1.87-5.2-5.56V37.84h-2.4a37.7,37.7,0,0,1-3.39,9.84Q104,55,94.78,58.89l-2.63-4.14c6.14-2.8,10.23-6.32,12.37-10.5a37.37,37.37,0,0,0,2.18-6.41H92.91V33.35H107.5c.27-2.14.45-4.36.53-6.72V24.05H95.75V19.51Z"/><path class="cls-5" d="M175.67,58.85h-4.54V57.38H142.66v1.47h-4.54V19.2h37.55Zm-4.54-5.57v-30H142.66v30Zm-15.08-29c-.27.63-.53,1.25-.85,1.83h11.35v3.07a16.35,16.35,0,0,1-5,5.6,52.34,52.34,0,0,0,9.12,2.85l-2.41,3.47a48.63,48.63,0,0,1-10.54-4,51.93,51.93,0,0,1-12.33,4.14l-2-3.7A51.3,51.3,0,0,0,154,34.82a28.25,28.25,0,0,1-3.38-2.8,30.28,30.28,0,0,1-4,2.93l-2.54-3.38c3.83-2.14,6.46-4.76,7.79-7.83Zm10.1,25-1.51,3.78a109.5,109.5,0,0,0-17.13-4.67L149.33,45A108.78,108.78,0,0,1,166.15,49.28Zm-2.49-6.63-2.14,3.29A49,49,0,0,0,151.73,42l2.05-3A62.72,62.72,0,0,1,163.66,42.65Zm-1.74-13.26h-8.85a.21.21,0,0,0-.09.13A27.77,27.77,0,0,0,157.83,33,16.25,16.25,0,0,0,161.92,29.39Z"/><path class="cls-5" d="M193.65,35.44c0,1.42-.09,2.76-.18,4.05H213.9V59h-4.67v-15H192.94c-1.11,6.45-3.47,11.43-7,15l-3.6-3.16q6.54-6.34,6.67-20.29V19h4.67v9.79h11.62V17.69h4.58V28.77H219v4.45H193.65Z"/></g></g></svg>